<?xml version="1.0" encoding="iso-8859-1"?>
<!-- Uploaded to: SVG Repo, www.svgrepo.com, Generator: SVG Repo Mixer Tools -->
<!DOCTYPE svg PUBLIC "-//W3C//DTD SVG 1.1//EN" "http://www.w3.org/Graphics/SVG/1.1/DTD/svg11.dtd">
<svg fill="#000000" version="1.1" id="Capa_1" xmlns="http://www.w3.org/2000/svg" xmlns:xlink="http://www.w3.org/1999/xlink" 
	 width="800px" height="800px" viewBox="0 0 29.16 29.16" xml:space="preserve"
	>
<g>
	<path d="M24.465,16.674c-0.457-0.789-1.08-1.408-1.869-1.846c-0.543-0.312-1.332-0.604-2.361-0.865
		c0.959-0.326,1.732-0.732,2.314-1.232c0.588-0.504,1.031-1.08,1.338-1.727c0.314-0.65,0.477-1.336,0.477-2.062
		c0-0.993-0.295-1.909-0.883-2.745c-0.592-0.836-1.428-1.474-2.52-1.916c-0.42-0.173-0.922-0.304-1.477-0.41V0h-3.711v3.611h-2.39V0
		H9.67v3.611H4.002v3.032h0.856c0.578,0,0.975,0.054,1.176,0.16c0.202,0.104,0.351,0.245,0.436,0.426
		c0.086,0.177,0.126,0.593,0.126,1.244v12.237c0,0.643-0.04,1.047-0.126,1.229c-0.085,0.186-0.232,0.324-0.436,0.432
		c-0.201,0.098-0.598,0.146-1.176,0.146H4.002v3.029H9.67v3.613h3.713v-3.613h2.113c0.093,0,0.185,0,0.275,0v3.613h3.711v-3.92
		c0.629-0.119,1.178-0.275,1.645-0.463c1.281-0.512,2.273-1.258,2.975-2.238c0.709-0.982,1.057-2.057,1.057-3.221
		C25.158,18.348,24.928,17.467,24.465,16.674z M12.025,7.146h2.404c1.404,0,2.385,0.088,2.93,0.266
		c0.541,0.17,0.961,0.461,1.246,0.868c0.291,0.413,0.434,0.909,0.434,1.483c0,0.553-0.154,1.041-0.453,1.467
		c-0.309,0.428-0.762,0.744-1.363,0.949c-0.604,0.213-1.533,0.32-2.791,0.32h-2.404L12.025,7.146L12.025,7.146z M18.818,20.713
		c-0.432,0.541-0.943,0.904-1.562,1.074c-0.607,0.172-1.379,0.26-2.312,0.26h-1.602c-0.532,0-0.859-0.031-0.982-0.088
		c-0.123-0.051-0.205-0.156-0.26-0.301c-0.037-0.119-0.068-0.51-0.074-1.188v-4.75h2.838c1.254,0,2.17,0.115,2.78,0.348
		c0.605,0.23,1.066,0.57,1.361,1.025c0.307,0.447,0.463,0.992,0.463,1.648C19.469,19.51,19.252,20.162,18.818,20.713z"/>
</g>
</svg>